# xmcd CD database file
#
# Track frame offsets:
#	150
#	19381
#	37977
#	54737
#	65817
#	77943
#	94025
#	115298
#	128019
#	142866
#	160852
#	174669
#
# Disc length: 2543 seconds
#
# Revision: 0
# Processed by: cddbd v1.5.2PL0 Copyright (c) Steve Scherf et al.
# Submitted via: CDex 1.51
#
DISCID=a209ed0c
DTITLE=Chris Callaghan - Blame It All On Country
DYEAR=2006
DGENRE=Country
TTITLE0=Blame It All On Country
TTITLE1=So You Say
TTITLE2=The Only One
TTITLE3=Back At The Bar
TTITLE4=Where Is The Love
TTITLE5=Trouble
TTITLE6=Thin Blue Line
TTITLE7=Desperate Lovers
TTITLE8=One For The Road
TTITLE9=Workin' Man
TTITLE10=Almost Gone
TTITLE11=Hold On
EXTD=YEAR: 2006
EXTT0=
EXTT1=
EXTT2=
EXTT3=
EXTT4=
EXTT5=
EXTT6=
EXTT7=
EXTT8=
EXTT9=
EXTT10=
EXTT11=
PLAYORDER=
